<svg xmlns="http://www.w3.org/2000/svg" viewBox="0 0 30 30"><defs><style>.cls-1{fill:#ed3851;}.cls-2{fill:#fff;}</style></defs><title>goal_location</title><g id="Capa_2" data-name="Capa 2"><g id="Capa_1-2" data-name="Capa 1"><circle class="cls-1" cx="15" cy="15" r="15"/><path class="cls-2" d="M15,27.24A12.24,12.24,0,1,1,27.24,15,12.25,12.25,0,0,1,15,27.24Zm0-23A10.73,10.73,0,1,0,25.73,15,10.74,10.74,0,0,0,15,4.27Z"/><path class="cls-2" d="M15,21.85A6.85,6.85,0,1,1,21.85,15,6.86,6.86,0,0,1,15,21.85ZM15,9.66A5.34,5.34,0,1,0,20.34,15,5.35,5.35,0,0,0,15,9.66Z"/></g></g></svg>