<svg xmlns="http://www.w3.org/2000/svg" viewBox="0 0 30 30"><defs><style>.cls-1{fill:#5d78ff;}.cls-2{fill:#fff;}</style></defs><title>my_location</title><g id="Capa_2" data-name="Capa 2"><g id="Capa_1-2" data-name="Capa 1"><circle class="cls-1" cx="15" cy="15" r="15"/><path id="_Trazado_compuesto_" data-name="&lt;Trazado compuesto&gt;" class="cls-2" d="M19.51,12.19h-.1l-.58-3.37A.64.64,0,0,0,18,8.32l-1.73.53a.64.64,0,0,0,.37,1.23l1-.31.24,1.39H12.47v-.27l.67-.17A.59.59,0,0,0,13,9.55l-2.48.14-.15,0a.82.82,0,1,0,.4,1.59l.45-.11v.42l-.53.91A4.07,4.07,0,0,0,9,12.19,4.41,4.41,0,0,0,9,21a4.29,4.29,0,0,0,4.18-3.76h.68a.64.64,0,0,0,.48-.21L15.32,16a4.55,4.55,0,0,0,0,.62,4.24,4.24,0,1,0,4.24-4.4ZM9,19.71a3.12,3.12,0,0,1,0-6.24,2.78,2.78,0,0,1,1,.18L8.48,16.27a.64.64,0,0,0,.56,1h2.88A3,3,0,0,1,9,19.71ZM11.92,16H10.15l.93-1.6A3.16,3.16,0,0,1,11.92,16Zm1.7,0h-.4a4.44,4.44,0,0,0-1.47-2.74l.45-.78h4.57Zm5.9,3.76a3,3,0,0,1-3-3.12,3.13,3.13,0,0,1,1.81-2.87l.51,3a.64.64,0,0,0,.63.53h.11a.64.64,0,0,0,.53-.74l-.51-3a3.12,3.12,0,0,1-.12,6.22Z"/></g></g></svg>